<?xml version="1.0" encoding="utf-8"?>
<!-- Generator: Adobe Illustrator 17.1.0, SVG Export Plug-In . SVG Version: 6.00 Build 0)  -->
<!DOCTYPE svg PUBLIC "-//W3C//DTD SVG 1.1//EN" "http://www.w3.org/Graphics/SVG/1.1/DTD/svg11.dtd">
<svg version="1.1" id="Layer_1" xmlns="http://www.w3.org/2000/svg" xmlns:xlink="http://www.w3.org/1999/xlink" x="0px" y="0px"
	 viewBox="0 0 85 50" enable-background="new 0 0 85 50" xml:space="preserve">
<path fill="#0A0C15" d="M83.272,44.158l-7.104-11.59c-2.568-4.152-5.393-6.573-8.902-7.612c3.68-0.776,7.104-3.804,8.902-7.61
	l5.391-11.503c1.027-2.25,0.771-3.978-1.455-3.978h-7.875c-2.481,0-4.878,1.556-5.99,3.978l-4.023,8.648
	c-1.602,3.397-4.568,5.409-9,5.66C51.437,7.439,42.32,1,27.279,1C10.443,1,1,9.044,1,24.956C1,40.871,10.443,49,27.279,49
	c15.006,0,24.117-6.475,25.926-19.146c3.523,0.268,6.883,2.065,9.011,5.567l5.306,8.736c1.37,2.247,3.68,3.979,6.42,3.979h7.872
	C84.04,48.137,84.639,46.405,83.272,44.158z M27.279,39.4c-7.572,0-11.226-4.237-11.226-14.444c0-10.204,3.654-14.357,11.226-14.357
	c7.573,0,11.226,4.153,11.226,14.357C38.505,35.163,34.852,39.4,27.279,39.4z"/>
</svg>
